<svg xmlns="http://www.w3.org/2000/svg" width="800" height="800" viewBox="0 0 800 800">
  <rect width="800" height="800" fill="#0b0b0d"/>
  <g stroke="#17171b" stroke-width="1">
    <path d="M80 0V800 M160 0V800 M240 0V800 M320 0V800 M400 0V800 M480 0V800 M560 0V800 M640 0V800 M720 0V800"/>
    <path d="M0 80H800 M0 160H800 M0 240H800 M0 320H800 M0 400H800 M0 480H800 M0 560H800 M0 640H800 M0 720H800"/>
  </g>
  <g stroke="#6366f1" fill="none" stroke-width="1.5">
    <circle cx="400" cy="280" r="60"/>
    <circle cx="400" cy="280" r="28"/>
    <path d="M400 220 V340 M340 280 H460" stroke="#6366f1" stroke-width="2"/>
    <path d="M200 450 Q300 380 400 450 Q500 380 600 450" stroke="#6366f1" stroke-width="1.5" fill="none"/>
    <circle cx="200" cy="450" r="8" fill="#6366f1"/>
    <circle cx="600" cy="450" r="8" fill="#6366f1"/>
    <path d="M400 220 Q350 160 300 160 Q250 160 200 220" stroke="#6366f1" stroke-width="1.5" fill="none" stroke-dasharray="6 4"/>
    <path d="M400 220 Q450 160 500 160 Q550 160 600 220" stroke="#6366f1" stroke-width="1.5" fill="none" stroke-dasharray="6 4"/>
    <ellipse cx="400" cy="580" rx="120" ry="40" stroke="#6366f1" stroke-width="1.5"/>
    <path d="M280 570 Q400 530 520 570" stroke="#6366f1" stroke-width="1.5" fill="none"/>
    <circle cx="400" cy="650" r="30" stroke-dasharray="4 5"/>
    <path d="M380 630 L420 670 M420 630 L380 670" stroke="#6366f1" stroke-width="1.5"/>
  </g>
  <text x="56" y="672" font-family="ui-monospace, SFMono-Regular, monospace" font-size="38" font-weight="600" fill="#f4f4f5">AI Voice Intake</text>
  <text x="56" y="716" font-family="ui-monospace, SFMono-Regular, monospace" font-size="38" font-weight="600" fill="#f4f4f5">Agent</text>
  <text x="56" y="752" font-family="ui-monospace, SFMono-Regular, monospace" font-size="16" fill="#6366f1">LIVEKIT · OPENAI REALTIME · SUPABASE</text>
  <text x="744" y="56" text-anchor="end" font-family="ui-monospace, SFMono-Regular, monospace" font-size="14" fill="#52525b">FIG. 06</text>
</svg>